<svg xmlns="http://www.w3.org/2000/svg" viewBox="0 0 800 500" preserveAspectRatio="xMidYMid slice" role="img" aria-label="David Martins Portfolio">
  <defs>
    <linearGradient id="g99" x1="0" y1="0" x2="1" y2="1">
      <stop offset="0" stop-color="#1A1814"/>
      <stop offset="1" stop-color="#6B5C4E"/>
    </linearGradient>
    <pattern id="p99" width="28" height="28" patternUnits="userSpaceOnUse">
      <path d="M0 28 L28 0" stroke="rgba(255,255,255,0.05)" stroke-width="1"/>
    </pattern>
  </defs>
  <rect width="800" height="500" fill="url(#g99)"/>
  <rect width="800" height="500" fill="url(#p99)"/>
  <g fill="rgba(245,240,232,0.9)" font-family="Syne, sans-serif" font-weight="700">
    <text x="50" y="110" font-size="22" opacity="0.65" letter-spacing="4">PORTFOLIO</text>
    <text x="50" y="200" font-size="64" letter-spacing="-1">David Martins</text>
    <text x="50" y="245" font-size="22" opacity="0.7" font-weight="400">Análise de Dados · Automação · Power BI · Python</text>
  </g>
  <g stroke="rgba(245,240,232,0.55)" stroke-width="2" fill="none">
    <polyline points="50,300 150,260 250,280 350,220 450,240 550,180 650,200 750,150"/>
  </g>
  <g fill="rgba(245,240,232,0.12)">
    <rect x="50" y="380" width="80" height="70" rx="4"/>
    <rect x="150" y="340" width="80" height="110" rx="4"/>
    <rect x="250" y="360" width="80" height="90" rx="4"/>
    <rect x="350" y="310" width="80" height="140" rx="4"/>
    <rect x="450" y="370" width="80" height="80" rx="4"/>
    <rect x="550" y="330" width="80" height="120" rx="4"/>
    <rect x="650" y="350" width="80" height="100" rx="4"/>
  </g>
</svg>