<svg xmlns="http://www.w3.org/2000/svg" viewBox="0 0 800 500" preserveAspectRatio="xMidYMid slice" role="img" aria-label="Indicadores Power BI · Modelagem">
  <defs>
    <linearGradient id="g2" x1="0" y1="0" x2="1" y2="1">
      <stop offset="0" stop-color="#4A4036"/>
      <stop offset="1" stop-color="#B8A68C"/>
    </linearGradient>
    <pattern id="p2" width="28" height="28" patternUnits="userSpaceOnUse">
      <path d="M0 28 L28 0" stroke="rgba(255,255,255,0.05)" stroke-width="1"/>
    </pattern>
  </defs>
  <rect width="800" height="500" fill="url(#g2)"/>
  <rect width="800" height="500" fill="url(#p2)"/>
  <g fill="rgba(245,240,232,0.9)" font-family="Syne, sans-serif" font-weight="700">
    <text x="50" y="110" font-size="22" opacity="0.65" letter-spacing="4">HR</text>
    <text x="50" y="200" font-size="64" letter-spacing="-1">Indicadores</text>
    <text x="50" y="245" font-size="22" opacity="0.7" font-weight="400">Power BI · Modelagem</text>
  </g>
  <g stroke="rgba(245,240,232,0.55)" stroke-width="2" fill="none">
    <polyline points="50,280 150,240 250,290 350,230 450,260 550,210 650,250 750,200"/>
  </g>
  <g fill="rgba(245,240,232,0.12)">
    <rect x="50" y="380" width="80" height="70" rx="4"/>
    <rect x="150" y="340" width="80" height="110" rx="4"/>
    <rect x="250" y="360" width="80" height="90" rx="4"/>
    <rect x="350" y="310" width="80" height="140" rx="4"/>
    <rect x="450" y="370" width="80" height="80" rx="4"/>
    <rect x="550" y="330" width="80" height="120" rx="4"/>
    <rect x="650" y="350" width="80" height="100" rx="4"/>
  </g>
</svg>